<svg width="22" height="22" viewBox="0 0 22 22" fill="none" xmlns="http://www.w3.org/2000/svg">
<path d="M1.57141 10.5714H11V12H1.57141V10.5714ZM1.57155 6.79987H9.42869V8.22844H1.57155V6.79987Z" fill="#00AEFF"/>
<path d="M21.9352 11.1948L19.5367 5.78619C19.4751 5.64717 19.3727 5.52869 19.2421 5.44545C19.1114 5.36221 18.9584 5.31787 18.8019 5.31796H16.4034V3.77265C16.4034 3.56773 16.3191 3.37121 16.1692 3.2263C16.0192 3.0814 15.8159 3 15.6038 3H2.8115V4.54531H14.8043V14.2467C14.44 14.4512 14.1212 14.7233 13.8662 15.0474C13.6112 15.3715 13.4252 15.7412 13.3188 16.1351H8.29461C8.10002 15.4067 7.63722 14.772 6.99299 14.3498C6.34875 13.9276 5.5673 13.747 4.79511 13.8418C4.02292 13.9366 3.31301 14.3002 2.79845 14.8647C2.28389 15.4291 2 16.1555 2 16.9077C2 17.66 2.28389 18.3864 2.79845 18.9508C3.31301 19.5152 4.02292 19.8789 4.79511 19.9737C5.5673 20.0685 6.34875 19.8879 6.99299 19.4657C7.63722 19.0435 8.10002 18.4087 8.29461 17.6804H13.3188C13.4927 18.3435 13.8905 18.9317 14.4491 19.3518C15.0078 19.7719 15.6955 20 16.4034 20C17.1112 20 17.7989 19.7719 18.3576 19.3518C18.9162 18.9317 19.314 18.3435 19.4879 17.6804H21.2005C21.4125 17.6804 21.6159 17.599 21.7658 17.4541C21.9158 17.3092 22 17.1127 22 16.9077V11.4992C22 11.3945 21.978 11.2909 21.9352 11.1948ZM5.21006 18.4531C4.8938 18.4531 4.58464 18.3624 4.32168 18.1926C4.05872 18.0228 3.85377 17.7815 3.73274 17.4991C3.61171 17.2167 3.58005 16.906 3.64175 16.6063C3.70345 16.3065 3.85574 16.0312 4.07937 15.8151C4.303 15.5989 4.58792 15.4518 4.89811 15.3921C5.20829 15.3325 5.5298 15.3631 5.82199 15.4801C6.11418 15.597 6.36391 15.7951 6.53962 16.0492C6.71532 16.3033 6.8091 16.6021 6.8091 16.9077C6.80868 17.3175 6.64007 17.7103 6.34029 18C6.0405 18.2897 5.63402 18.4526 5.21006 18.4531ZM16.4034 6.86326H18.2742L19.9884 10.7265H16.4034V6.86326ZM16.4034 18.4531C16.0871 18.4531 15.7779 18.3624 15.515 18.1926C15.252 18.0228 15.0471 17.7815 14.926 17.4991C14.805 17.2167 14.7733 16.906 14.835 16.6063C14.8967 16.3065 15.049 16.0312 15.2727 15.8151C15.4963 15.5989 15.7812 15.4518 16.0914 15.3921C16.4016 15.3325 16.7231 15.3631 17.0153 15.4801C17.3075 15.597 17.5572 15.7951 17.7329 16.0492C17.9086 16.3033 18.0024 16.6021 18.0024 16.9077C18.002 17.3175 17.8334 17.7103 17.5336 18C17.2338 18.2897 16.8273 18.4526 16.4034 18.4531ZM20.401 16.1351H19.4879C19.3118 15.4733 18.9134 14.8866 18.3552 14.4671C17.797 14.0477 17.1105 13.819 16.4034 13.8171V12.2718H20.401V16.1351Z" fill="#001B4E"/>
</svg>
