<svg width="52" height="52" viewBox="0 0 52 52" fill="none" xmlns="http://www.w3.org/2000/svg">
<circle cx="26" cy="26" r="26" fill="#F4FCFF"/>
<path d="M16.5714 25.5714H26V27H16.5714V25.5714ZM16.5716 21.7999H24.4287V23.2284H16.5716V21.7999Z" fill="#00AEFF"/>
<path d="M36.9352 26.1948L34.5367 20.7862C34.4751 20.6472 34.3727 20.5287 34.2421 20.4454C34.1114 20.3622 33.9584 20.3179 33.8019 20.318H31.4034V18.7727C31.4034 18.5677 31.3191 18.3712 31.1692 18.2263C31.0192 18.0814 30.8159 18 30.6038 18H17.8115V19.5453H29.8043V29.2467C29.44 29.4512 29.1212 29.7233 28.8662 30.0474C28.6112 30.3715 28.4252 30.7412 28.3188 31.1351H23.2946C23.1 30.4067 22.6372 29.772 21.993 29.3498C21.3488 28.9276 20.5673 28.747 19.7951 28.8418C19.0229 28.9366 18.313 29.3002 17.7985 29.8647C17.2839 30.4291 17 31.1555 17 31.9077C17 32.66 17.2839 33.3864 17.7985 33.9508C18.313 34.5152 19.0229 34.8789 19.7951 34.9737C20.5673 35.0685 21.3488 34.8879 21.993 34.4657C22.6372 34.0435 23.1 33.4087 23.2946 32.6804H28.3188C28.4927 33.3435 28.8905 33.9317 29.4491 34.3518C30.0078 34.7719 30.6955 35 31.4034 35C32.1112 35 32.7989 34.7719 33.3576 34.3518C33.9162 33.9317 34.314 33.3435 34.4879 32.6804H36.2005C36.4125 32.6804 36.6159 32.599 36.7658 32.4541C36.9158 32.3092 37 32.1127 37 31.9077V26.4992C37 26.3945 36.978 26.2909 36.9352 26.1948ZM20.2101 33.4531C19.8938 33.4531 19.5846 33.3624 19.3217 33.1926C19.0587 33.0228 18.8538 32.7815 18.7327 32.4991C18.6117 32.2167 18.58 31.906 18.6417 31.6063C18.7034 31.3065 18.8557 31.0312 19.0794 30.8151C19.303 30.5989 19.5879 30.4518 19.8981 30.3921C20.2083 30.3325 20.5298 30.3631 20.822 30.4801C21.1142 30.597 21.3639 30.7951 21.5396 31.0492C21.7153 31.3033 21.8091 31.6021 21.8091 31.9077C21.8087 32.3175 21.6401 32.7103 21.3403 33C21.0405 33.2897 20.634 33.4526 20.2101 33.4531ZM31.4034 21.8633H33.2742L34.9884 25.7265H31.4034V21.8633ZM31.4034 33.4531C31.0871 33.4531 30.7779 33.3624 30.515 33.1926C30.252 33.0228 30.0471 32.7815 29.926 32.4991C29.805 32.2167 29.7733 31.906 29.835 31.6063C29.8967 31.3065 30.049 31.0312 30.2727 30.8151C30.4963 30.5989 30.7812 30.4518 31.0914 30.3921C31.4016 30.3325 31.7231 30.3631 32.0153 30.4801C32.3075 30.597 32.5572 30.7951 32.7329 31.0492C32.9086 31.3033 33.0024 31.6021 33.0024 31.9077C33.002 32.3175 32.8334 32.7103 32.5336 33C32.2338 33.2897 31.8273 33.4526 31.4034 33.4531ZM35.401 31.1351H34.4879C34.3118 30.4733 33.9134 29.8866 33.3552 29.4671C32.797 29.0477 32.1105 28.819 31.4034 28.8171V27.2718H35.401V31.1351Z" fill="#001B4E"/>
</svg>
