<svg width="52" height="52" viewBox="0 0 52 52" fill="none" xmlns="http://www.w3.org/2000/svg">
<circle cx="26" cy="26" r="26" fill="#F4FCFF"/>
<mask id="mask0_639_1596" style="mask-type:luminance" maskUnits="userSpaceOnUse" x="21" y="21" width="10" height="10">
<path d="M31 26C31 28.7614 28.7614 31 26 31C23.2386 31 21 28.7614 21 26C21 23.2386 23.2386 21 26 21C28.7614 21 31 23.2386 31 26Z" fill="white"/>
</mask>
<g mask="url(#mask0_639_1596)">
<path d="M27.25 27.25C27.25 27.471 27.1622 27.6829 27.0059 27.8392C26.8496 27.9955 26.6377 28.0833 26.4167 28.0833V26.4166C26.6377 26.4166 26.8496 26.5044 27.0059 26.6607C27.1622 26.817 27.25 27.029 27.25 27.25ZM24.75 24.75C24.75 24.529 24.8378 24.317 24.9941 24.1607C25.1504 24.0044 25.3623 23.9166 25.5833 23.9166V25.5833C25.3623 25.5833 25.1504 25.4955 24.9941 25.3392C24.8378 25.1829 24.75 24.971 24.75 24.75Z" fill="#00AEFF"/>
<path fill-rule="evenodd" clip-rule="evenodd" d="M21 31H31V21H21V31ZM26 29.75C25.8895 29.75 25.7835 29.7061 25.7054 29.628C25.6272 29.5498 25.5833 29.4438 25.5833 29.3333V28.9167C25.2386 28.9166 24.9024 28.8098 24.6209 28.6107C24.3395 28.4117 24.1266 28.1304 24.0117 27.8054C23.9772 27.7018 23.9848 27.5888 24.0327 27.4907C24.0807 27.3927 24.1653 27.3173 24.2682 27.281C24.3712 27.2446 24.4843 27.2501 24.5833 27.2963C24.6822 27.3425 24.7591 27.4256 24.7973 27.5279C24.8548 27.6904 24.9613 27.831 25.1021 27.9305C25.2428 28.03 25.411 28.0834 25.5833 28.0833V26.4167C25.1413 26.4167 24.7174 26.2411 24.4048 25.9285C24.0923 25.616 23.9167 25.192 23.9167 24.75C23.9167 24.308 24.0923 23.884 24.4048 23.5715C24.7174 23.2589 25.1413 23.0833 25.5833 23.0833V22.6667C25.5833 22.5562 25.6272 22.4502 25.7054 22.372C25.7835 22.2939 25.8895 22.25 26 22.25C26.1105 22.25 26.2165 22.2939 26.2946 22.372C26.3728 22.4502 26.4167 22.5562 26.4167 22.6667V23.0833C26.7614 23.0834 27.0976 23.1902 27.3791 23.3893C27.6605 23.5883 27.8734 23.8696 27.9883 24.1946C28.0228 24.2982 28.0152 24.4112 27.9673 24.5093C27.9193 24.6073 27.8347 24.6827 27.7318 24.719C27.6288 24.7554 27.5157 24.7499 27.4167 24.7037C27.3178 24.6575 27.2409 24.5744 27.2027 24.4721C27.1452 24.3096 27.0387 24.169 26.8979 24.0695C26.7572 23.97 26.589 23.9166 26.4167 23.9167V25.5833C26.8587 25.5833 27.2826 25.7589 27.5952 26.0715C27.9077 26.384 28.0833 26.808 28.0833 27.25C28.0833 27.692 27.9077 28.116 27.5952 28.4285C27.2826 28.7411 26.8587 28.9167 26.4167 28.9167V29.3333C26.4167 29.4438 26.3728 29.5498 26.2946 29.628C26.2165 29.7061 26.1105 29.75 26 29.75Z" fill="#00AEFF"/>
</g>
<path d="M34.25 35.1667L31.5 33.3333L28.75 35.1667L26 33.3333L23.25 35.1667L20.5 33.3333L17.75 35.1667V17.75H34.25V35.1667ZM32.4167 31.7383V19.5833H19.5833V31.7383L20.5 31.1333L23.25 32.9667L26 31.1333L28.75 32.9667L31.5 31.1333L32.4167 31.7383Z" fill="#001B4E"/>
</svg>
