<svg width="22" height="22" viewBox="0 0 22 22" fill="none" xmlns="http://www.w3.org/2000/svg">
<mask id="mask0_169_830" style="mask-type:luminance" maskUnits="userSpaceOnUse" x="6" y="6" width="10" height="10">
<path d="M16 11C16 13.7614 13.7614 16 11 16C8.23858 16 6 13.7614 6 11C6 8.23858 8.23858 6 11 6C13.7614 6 16 8.23858 16 11Z" fill="white"/>
</mask>
<g mask="url(#mask0_169_830)">
<path d="M12.25 12.25C12.25 12.471 12.1622 12.683 12.0059 12.8392C11.8496 12.9955 11.6377 13.0833 11.4167 13.0833V11.4166C11.6377 11.4166 11.8496 11.5044 12.0059 11.6607C12.1622 11.817 12.25 12.029 12.25 12.25ZM9.75 9.74998C9.75 9.52897 9.8378 9.317 9.99408 9.16072C10.1504 9.00444 10.3623 8.91665 10.5833 8.91665V10.5833C10.3623 10.5833 10.1504 10.4955 9.99408 10.3392C9.8378 10.183 9.75 9.97099 9.75 9.74998Z" fill="#00AEFF"/>
<path fill-rule="evenodd" clip-rule="evenodd" d="M6 16H16V6H6V16ZM11 14.75C10.8895 14.75 10.7835 14.7061 10.7054 14.628C10.6272 14.5498 10.5833 14.4438 10.5833 14.3333V13.9167C10.2386 13.9166 9.9024 13.8098 9.62094 13.6107C9.33949 13.4117 9.12663 13.1304 9.01167 12.8054C8.97719 12.7018 8.98475 12.5888 9.03274 12.4907C9.08072 12.3927 9.16529 12.3173 9.26824 12.281C9.3712 12.2446 9.48431 12.2501 9.58325 12.2963C9.68219 12.3425 9.75905 12.4256 9.79729 12.5279C9.85483 12.6904 9.96131 12.831 10.1021 12.9305C10.2428 13.03 10.411 13.0834 10.5833 13.0833V11.4167C10.1413 11.4167 9.71738 11.2411 9.40482 10.9285C9.09226 10.616 8.91667 10.192 8.91667 9.75C8.91667 9.30797 9.09226 8.88405 9.40482 8.57149C9.71738 8.25893 10.1413 8.08333 10.5833 8.08333V7.66667C10.5833 7.55616 10.6272 7.45018 10.7054 7.37204C10.7835 7.2939 10.8895 7.25 11 7.25C11.1105 7.25 11.2165 7.2939 11.2946 7.37204C11.3728 7.45018 11.4167 7.55616 11.4167 7.66667V8.08333C11.7614 8.08337 12.0976 8.19025 12.3791 8.38925C12.6605 8.58826 12.8734 8.86961 12.9883 9.19458C13.0228 9.29819 13.0152 9.41118 12.9673 9.50926C12.9193 9.60734 12.8347 9.68267 12.7318 9.71904C12.6288 9.7554 12.5157 9.7499 12.4167 9.70372C12.3178 9.65753 12.2409 9.57436 12.2027 9.47208C12.1452 9.30961 12.0387 9.16896 11.8979 9.0695C11.7572 8.97004 11.589 8.91664 11.4167 8.91667V10.5833C11.8587 10.5833 12.2826 10.7589 12.5952 11.0715C12.9077 11.384 13.0833 11.808 13.0833 12.25C13.0833 12.692 12.9077 13.116 12.5952 13.4285C12.2826 13.7411 11.8587 13.9167 11.4167 13.9167V14.3333C11.4167 14.4438 11.3728 14.5498 11.2946 14.628C11.2165 14.7061 11.1105 14.75 11 14.75Z" fill="#00AEFF"/>
</g>
<path d="M19.25 20.1667L16.5 18.3333L13.75 20.1667L11 18.3333L8.25 20.1667L5.5 18.3333L2.75 20.1667V2.75H19.25V20.1667ZM17.4167 16.7383V4.58333H4.58333V16.7383L5.5 16.1333L8.25 17.9667L11 16.1333L13.75 17.9667L16.5 16.1333L17.4167 16.7383Z" fill="#001B4E"/>
</svg>
