<svg width="24" height="24" viewBox="0 0 24 24" fill="none" xmlns="http://www.w3.org/2000/svg">
<path d="M15.9624 0.771973L15.06 4.96138L18.3722 0.771973H15.9624ZM23.0538 1.64788L17.4405 7.86322L23.0538 5.61763V1.64788ZM8.68948 3.76166C8.65891 3.76213 8.62887 3.76325 8.59863 3.76461C8.15285 3.78439 7.73754 3.88813 7.39456 4.12053C6.59937 4.65922 6.8651 5.86222 6.32674 7.07807C4.48737 11.2319 2.62924 14.2445 0.987305 16.4677V21.3134C3.87396 20.3129 8.17338 19.2761 14.4565 19.0678C15.7749 19.0242 16.7875 19.6576 17.5781 19.1221C19.5299 17.7999 18.8232 13.3814 16.0181 9.24022C15.8428 8.98147 15.6795 8.71804 15.4966 8.4741C13.3028 5.54788 10.6157 3.73583 8.68938 3.76175L8.68948 3.76166ZM8.43752 4.9101C8.12084 5.56133 8.41821 6.96603 9.18462 8.69525C8.94274 7.82216 8.96487 7.1886 9.31057 6.97846C10.0664 6.51899 12.0787 8.25229 13.8047 10.85C15.5306 13.4477 16.3169 15.9261 15.5611 16.3857C15.2501 16.5747 14.7263 16.3921 14.0977 15.9315C15.3969 17.2483 16.5696 18.0179 17.2896 17.9779C17.2059 18.1265 17.1173 18.2706 16.9849 18.3603C15.724 19.2146 12.6839 16.9423 10.2041 13.2817C7.72437 9.62103 6.74149 5.95325 8.00243 5.09905C8.13166 5.01158 8.27355 4.93377 8.43752 4.9101ZM23.0538 10.3271L19.084 11.6132L23.0538 12.2153V10.3271Z" fill="#111111"/>
</svg>
