<svg width="52" height="52" viewBox="0 0 52 52" fill="none" xmlns="http://www.w3.org/2000/svg">
<circle cx="26" cy="26" r="26" fill="#F4FCFF"/>
<path d="M25.9999 26C27.2623 26 28.2857 24.9767 28.2857 23.7143C28.2857 22.4519 27.2623 21.4286 25.9999 21.4286C24.7376 21.4286 23.7142 22.4519 23.7142 23.7143C23.7142 24.9767 24.7376 26 25.9999 26Z" fill="#00AEFF" stroke="#00AEFF" stroke-linecap="round" stroke-linejoin="round"/>
<path d="M18 21.4286H19.1429V20.2857C19.1429 19.6795 19.3837 19.0981 19.8123 18.6695C20.241 18.2408 20.8224 18 21.4286 18H30.5714C31.1776 18 31.759 18.2408 32.1877 18.6695C32.6163 19.0981 32.8571 19.6795 32.8571 20.2857V31.7143C32.8571 32.3205 32.6163 32.9019 32.1877 33.3305C31.759 33.7592 31.1776 34 30.5714 34H21.4286C20.8224 34 20.241 33.7592 19.8123 33.3305C19.3837 32.9019 19.1429 32.3205 19.1429 31.7143V30.5714H18M18 26H19.1429M18 23.7143H19.1429M18 28.2857H19.1429" stroke="#001B4E" stroke-linecap="round" stroke-linejoin="round"/>
<path fill-rule="evenodd" clip-rule="evenodd" d="M29.4286 29.4286V28.2857C29.4286 27.6795 29.1877 27.0981 28.7591 26.6695C28.3304 26.2408 27.749 26 27.1428 26H24.8571C24.2509 26 23.6695 26.2408 23.2409 26.6695C22.8122 27.0981 22.5714 27.6795 22.5714 28.2857V29.4286C22.5714 29.7317 22.6918 30.0224 22.9061 30.2367C23.1205 30.451 23.4112 30.5714 23.7143 30.5714H28.2857C28.5888 30.5714 28.8795 30.451 29.0938 30.2367C29.3081 30.0224 29.4286 29.7317 29.4286 29.4286Z" fill="#00AEFF" stroke="#00AEFF" stroke-linecap="round" stroke-linejoin="round"/>
</svg>
