<svg width="52" height="52" viewBox="0 0 52 52" fill="none" xmlns="http://www.w3.org/2000/svg">
<circle cx="26" cy="26" r="26" fill="#F4FCFF"/>
<path d="M30 30.9999V32.9999H16V30.9999C16 30.9999 16 26.9999 23 26.9999C30 26.9999 30 30.9999 30 30.9999ZM26.5 21.4999C26.5 20.8077 26.2947 20.131 25.9101 19.5555C25.5256 18.9799 24.9789 18.5313 24.3394 18.2664C23.6999 18.0015 22.9961 17.9322 22.3172 18.0672C21.6382 18.2022 21.0146 18.5356 20.5251 19.0251C20.0356 19.5146 19.7023 20.1382 19.5673 20.8171C19.4322 21.4961 19.5015 22.1998 19.7664 22.8393C20.0313 23.4789 20.4799 24.0255 21.0555 24.4101C21.6311 24.7947 22.3078 24.9999 23 24.9999C23.9283 24.9999 24.8185 24.6312 25.4749 23.9748C26.1313 23.3184 26.5 22.4282 26.5 21.4999Z" fill="#00AEFF"/>
<g clip-path="url(#clip0_639_1598)">
<path d="M26.5 21.5C26.5 20.8078 26.2947 20.1311 25.9101 19.5555C25.5256 18.9799 24.9789 18.5313 24.3394 18.2664C23.6999 18.0015 22.9961 17.9322 22.3172 18.0673C21.6382 18.2023 21.0146 18.5356 20.5251 19.0251C20.0356 19.5146 19.7023 20.1383 19.5673 20.8172C19.4322 21.4961 19.5015 22.1999 19.7664 22.8394C20.0313 23.4789 20.4799 24.0256 21.0555 24.4102C21.6311 24.7947 22.3078 25 23 25C23.9283 25 24.8185 24.6313 25.4749 23.9749C26.1313 23.3185 26.5 22.4283 26.5 21.5ZM29.94 27C30.5547 27.4758 31.0578 28.0804 31.4137 28.7715C31.7696 29.4626 31.9697 30.2233 32 31V33H36V31C36 31 36 27.37 29.94 27ZM29 18C28.3117 17.9962 27.6385 18.202 27.07 18.59C27.6774 19.4387 28.0041 20.4563 28.0041 21.5C28.0041 22.5437 27.6774 23.5613 27.07 24.41C27.6385 24.7981 28.3117 25.0038 29 25C29.9283 25 30.8185 24.6313 31.4749 23.9749C32.1313 23.3185 32.5 22.4283 32.5 21.5C32.5 20.5717 32.1313 19.6815 31.4749 19.0251C30.8185 18.3688 29.9283 18 29 18Z" fill="#001B4E"/>
</g>
<defs>
<clipPath id="clip0_639_1598">
<rect width="11" height="24" fill="white" transform="translate(27 14)"/>
</clipPath>
</defs>
</svg>
