<svg width="52" height="52" viewBox="0 0 52 52" fill="none" xmlns="http://www.w3.org/2000/svg">
<circle cx="26" cy="26" r="26" fill="#F4FCFF"/>
<path d="M19.5833 17.75H32.4166V34.25L31.4706 33.4397C31.1383 33.1549 30.7151 32.9984 30.2775 32.9984C29.8399 32.9984 29.4168 33.1549 29.0845 33.4397L28.1385 34.25L27.1934 33.4397C26.8611 33.1547 26.4377 32.998 25.9999 32.998C25.5621 32.998 25.1388 33.1547 24.8064 33.4397L23.8613 34.25L22.9153 33.4397C22.5831 33.1549 22.1599 32.9984 21.7223 32.9984C21.2847 32.9984 20.8615 33.1549 20.5293 33.4397L19.5833 34.25V17.75Z" fill="white"/>
<path d="M28.7499 21.4167H25.9999H23.2499M28.7499 25.0833H25.9999H23.2499M28.7499 28.75H25.0833M19.5833 17.75H32.4166V34.25L31.4706 33.4397C31.1383 33.1549 30.7151 32.9984 30.2775 32.9984C29.8399 32.9984 29.4168 33.1549 29.0845 33.4397L28.1385 34.25L27.1934 33.4397C26.8611 33.1547 26.4377 32.998 25.9999 32.998C25.5621 32.998 25.1388 33.1547 24.8064 33.4397L23.8613 34.25L22.9153 33.4397C22.5831 33.1549 22.1599 32.9984 21.7223 32.9984C21.2847 32.9984 20.8615 33.1549 20.5293 33.4397L19.5833 34.25V17.75Z" stroke="#001B4E" stroke-width="2" stroke-linecap="round" stroke-linejoin="round"/>
<rect x="22" y="20.4" width="8" height="2" rx="1" fill="#00AEFF"/>
<rect x="22" y="24.1" width="8" height="2" rx="1" fill="#00AEFF"/>
<rect x="22" y="27.8" width="8" height="2" rx="1" fill="#00AEFF"/>
</svg>
