<svg width="22" height="22" viewBox="0 0 22 22" fill="none" xmlns="http://www.w3.org/2000/svg">
<path d="M14.6667 2.75V6.41667M7.33341 2.75V6.41667M3.66675 10.0833H18.3334M3.66675 6.41667C3.66675 5.93044 3.8599 5.46412 4.20372 5.1203C4.54754 4.77649 5.01385 4.58333 5.50008 4.58333H16.5001C16.9863 4.58333 17.4526 4.77649 17.7964 5.1203C18.1403 5.46412 18.3334 5.93044 18.3334 6.41667V17.4167C18.3334 17.9029 18.1403 18.3692 17.7964 18.713C17.4526 19.0568 16.9863 19.25 16.5001 19.25H5.50008C5.01385 19.25 4.54754 19.0568 4.20372 18.713C3.8599 18.3692 3.66675 17.9029 3.66675 17.4167V6.41667Z" stroke="#001B4E" stroke-width="2" stroke-linecap="round" stroke-linejoin="round"/>
<path d="M10.0835 14.6667C10.0835 14.9098 10.1801 15.1429 10.352 15.3148C10.5239 15.4868 10.757 15.5833 11.0002 15.5833C11.2433 15.5833 11.4764 15.4868 11.6483 15.3148C11.8203 15.1429 11.9168 14.9098 11.9168 14.6667C11.9168 14.4236 11.8203 14.1904 11.6483 14.0185C11.4764 13.8466 11.2433 13.75 11.0002 13.75C10.757 13.75 10.5239 13.8466 10.352 14.0185C10.1801 14.1904 10.0835 14.4236 10.0835 14.6667Z" stroke="#001B4E" stroke-width="2" stroke-linecap="round" stroke-linejoin="round"/>
<g clip-path="url(#clip0_169_801)">
<rect width="12.2222" height="9.77778" transform="translate(8.55811 12.2222)" fill="white"/>
<path d="M19.0516 14.6588C18.0037 14.1501 16.6125 13.881 15.0287 13.881C13.4449 13.881 12.0538 14.1501 11.0058 14.6588C9.95789 15.1676 9.36694 15.8835 9.36694 16.631V18.9881C9.36694 19.7355 9.96446 20.4539 11.0058 20.9602C12.0472 21.4665 13.4449 21.7381 15.0287 21.7381C16.6125 21.7381 18.0037 21.469 19.0516 20.9602C20.0995 20.4515 20.6905 19.7355 20.6905 18.9881V16.631C20.6905 15.8835 20.093 15.1651 19.0516 14.6588ZM15.0287 14.6667C18.1953 14.6667 19.8816 15.8074 19.8816 16.631C19.8816 17.4545 18.1953 18.5952 15.0287 18.5952C11.8622 18.5952 10.1758 17.4545 10.1758 16.631C10.1758 15.8074 11.8622 14.6667 15.0287 14.6667ZM14.6243 19.3741V20.9455C13.6638 20.9151 12.855 20.7776 12.1978 20.5777V19.0397C12.99 19.2447 13.8046 19.357 14.6243 19.3741ZM15.4331 19.3741C16.2528 19.357 17.0674 19.2447 17.8596 19.0397V20.5772C17.2024 20.7771 16.3936 20.9146 15.4331 20.945V19.3741ZM10.1758 18.9881V18.0811C10.4303 18.2863 10.7089 18.4615 11.0058 18.6031C11.1287 18.6625 11.2586 18.7185 11.389 18.7715V20.2649C10.5888 19.8799 10.1758 19.3952 10.1758 18.9881ZM18.6684 20.2649V18.7715C18.8004 18.7185 18.9288 18.6625 19.0516 18.6031C19.3485 18.4615 19.6271 18.2863 19.8816 18.0811V18.9881C19.8816 19.3952 19.4686 19.8799 18.6684 20.2649Z" fill="#00AEFF"/>
</g>
<defs>
<clipPath id="clip0_169_801">
<rect width="12.2222" height="9.77778" fill="white" transform="translate(8.55811 12.2222)"/>
</clipPath>
</defs>
</svg>
