<svg width="52" height="52" viewBox="0 0 52 52" fill="none" xmlns="http://www.w3.org/2000/svg">
<circle cx="26" cy="26" r="26" fill="#F4FCFF"/>
<path d="M18.9124 29.8235L11 31.1176" stroke="#001B4E" stroke-width="1.5"/>
<path d="M20.2895 22.5427L13.1583 19.1985" stroke="#001B4E" stroke-width="1.5"/>
<path d="M33.956 29.8235L41.8684 31.1176" stroke="#001B4E" stroke-width="1.5"/>
<path d="M32.5789 22.5427L39.7101 19.1985" stroke="#001B4E" stroke-width="1.5"/>
<path d="M26.3829 20.224L26.8129 13" stroke="#001B4E" stroke-width="1.5"/>
<path d="M25.9999 25.3333C26.6188 25.3333 27.2122 25.5792 27.6498 26.0168C28.0874 26.4543 28.3333 27.0478 28.3333 27.6667C28.3333 28.2855 28.0874 28.879 27.6498 29.3166C27.2122 29.7542 26.6188 30 25.9999 30C25.3811 30 24.7876 29.7542 24.35 29.3166C23.9124 28.879 23.6666 28.2855 23.6666 27.6667C23.6666 27.0478 23.9124 26.4543 24.35 26.0168C24.7876 25.5792 25.3811 25.3333 25.9999 25.3333ZM25.9999 31.1667C28.5783 31.1667 30.6666 32.2108 30.6666 33.5V34.6667H21.3333V33.5C21.3333 32.2108 23.4216 31.1667 25.9999 31.1667Z" fill="#00AEFF"/>
</svg>
