<svg width="52" height="52" viewBox="0 0 52 52" fill="none" xmlns="http://www.w3.org/2000/svg">
<circle cx="26" cy="26" r="26" fill="#F4FCFF"/>
<g clip-path="url(#clip0_639_1594)">
<path d="M35 36L32 34L29 36L26 34L23 36L20 34L17 36V17H35V36ZM33 32.26V19H19V32.26L20 31.6L23 33.6L26 31.6L29 33.6L32 31.6L33 32.26Z" fill="#001B4E"/>
<path d="M22.8716 28.2967L28.4999 22.6775L30.3607 24.5475L24.7416 30.1667H22.8716V28.2967ZM30.6907 21.1375C30.6704 21.1142 30.6455 21.0955 30.6174 21.0825C30.5326 21.0231 30.4301 20.9944 30.3268 21.0011C30.2235 21.0077 30.1256 21.0494 30.0491 21.1192L30.0307 21.1375L29.1324 22.0358L31.0024 23.9058L31.9007 23.0075C32.0841 22.8333 32.0841 22.5308 31.9007 22.3475L30.6907 21.1375Z" fill="#001B4E"/>
<g style="mix-blend-mode:color-dodge">
<path d="M22.5 28L30 20.5L32.5 22.5L25 30.5H22.5V28Z" fill="#D9D9D9"/>
</g>
</g>
<defs>
<clipPath id="clip0_639_1594">
<rect width="24" height="24" fill="white" transform="translate(14 14)"/>
</clipPath>
</defs>
</svg>
