<svg width="24" height="24" viewBox="0 0 24 24" fill="none" xmlns="http://www.w3.org/2000/svg">
<path d="M12.0001 9.5532L8.3641 8.1L17.3641 4.5L20.4673 5.7408C20.6239 5.80348 20.771 5.88791 20.9041 5.9916L12.0001 9.5532ZM21.5581 7.0236C21.5862 7.15129 21.6003 7.28166 21.6001 7.4124V11.1084C20.5929 10.7519 19.5025 10.7022 18.467 10.9656C17.4315 11.229 16.4974 11.7936 15.7829 12.5881C15.0685 13.3826 14.6058 14.3712 14.4534 15.4288C14.301 16.4863 14.4658 17.5653 14.9269 18.5292L12.5989 20.8548V10.6068L21.5581 7.0236ZM11.4001 21.2796C11.0737 21.2316 10.7521 21.1476 10.4401 21.0216L3.5317 18.2592C3.19761 18.1256 2.91123 17.8949 2.70952 17.597C2.50782 17.299 2.40004 16.9474 2.4001 16.5876V7.4124C2.4001 7.2804 2.4145 7.1484 2.4421 7.0236L11.4001 10.6056V21.2796ZM3.0949 5.9916L6.7501 7.4532L15.7501 3.8532L13.5601 2.9772C12.5587 2.57658 11.4415 2.57658 10.4401 2.9772L3.5317 5.7408C3.37506 5.80351 3.22802 5.88794 3.0949 5.9916Z" fill="#00AEFF"/>
<path fill-rule="evenodd" clip-rule="evenodd" d="M21.7084 16.0417C21.7084 15.6805 21.6372 15.3229 21.499 14.9893C21.3608 14.6556 21.1583 14.3525 20.9029 14.0971C20.6476 13.8418 20.3444 13.6392 20.0107 13.501C19.6771 13.3628 19.3195 13.2917 18.9584 13.2917C18.5972 13.2917 18.2396 13.3628 17.906 13.501C17.5723 13.6392 17.2692 13.8418 17.0138 14.0971C16.7585 14.3525 16.5559 14.6556 16.4177 14.9893C16.2795 15.3229 16.2084 15.6805 16.2084 16.0417C16.2084 16.771 16.4981 17.4705 17.0138 17.9862C17.5296 18.5019 18.229 18.7917 18.9584 18.7917C19.6877 18.7917 20.3872 18.5019 20.9029 17.9862C21.4186 17.4705 21.7084 16.771 21.7084 16.0417ZM18.9584 12.375C19.5419 12.3751 20.117 12.5144 20.6358 12.7815C21.1546 13.0485 21.6023 13.4355 21.9414 13.9103C22.2806 14.3851 22.5016 14.9341 22.586 15.5114C22.6704 16.0888 22.6157 16.678 22.4266 17.2301C22.2375 17.7821 21.9193 18.281 21.4986 18.6853C21.0779 19.0897 20.5667 19.3878 20.0076 19.5548C19.4485 19.7219 18.8577 19.7531 18.2841 19.6459C17.7105 19.5387 17.1708 19.2961 16.7098 18.9383L15.1574 20.4907C15.071 20.5742 14.9552 20.6204 14.835 20.6194C14.7148 20.6183 14.5999 20.5701 14.5149 20.4851C14.4299 20.4001 14.3817 20.2852 14.3807 20.165C14.3796 20.0448 14.4258 19.9291 14.5093 19.8426L16.0617 18.2903C15.6409 17.7483 15.3806 17.0991 15.3105 16.4165C15.2404 15.7339 15.3632 15.0453 15.6649 14.4291C15.9667 13.8128 16.4353 13.2936 17.0176 12.9305C17.5998 12.5674 18.2722 12.3749 18.9584 12.375ZM18.9584 17.875C18.4721 17.875 18.0058 17.6818 17.662 17.338C17.3182 16.9942 17.125 16.5279 17.125 16.0417C17.125 15.5554 17.3182 15.0891 17.662 14.7453C18.0058 14.4015 18.4721 14.2083 18.9584 14.2083C19.4446 14.2083 19.9109 14.4015 20.2547 14.7453C20.5985 15.0891 20.7917 15.5554 20.7917 16.0417C20.7917 16.5279 20.5985 16.9942 20.2547 17.338C19.9109 17.6818 19.4446 17.875 18.9584 17.875Z" fill="#001B4E"/>
</svg>
