<svg width="52" height="52" viewBox="0 0 52 52" fill="none" xmlns="http://www.w3.org/2000/svg">
<circle cx="26" cy="26" r="26" fill="#F4FCFF"/>
<g clip-path="url(#clip0_639_1600)">
<path d="M36.4747 33.5H35.0001V23C35.0001 22.6022 34.842 22.2206 34.5607 21.9393C34.2794 21.658 33.8979 21.5 33.5001 21.5H29.3751C29.2756 21.5 29.1802 21.5395 29.1099 21.6098C29.0396 21.6802 29.0001 21.7755 29.0001 21.875V33.5H27.5001V17.0384C27.5025 16.8048 27.4518 16.5736 27.3518 16.3625C27.2517 16.1513 27.105 15.9657 26.9226 15.8197C26.6739 15.6258 26.3706 15.5153 26.0555 15.5037C25.7405 15.492 25.4298 15.58 25.1676 15.755L17.6676 20.75C17.4618 20.8873 17.2932 21.0733 17.1767 21.2915C17.0603 21.5097 16.9996 21.7533 17.0001 22.0006V33.5H15.5254C15.3316 33.4971 15.1439 33.5678 15 33.6977C14.8562 33.8276 14.7669 34.0072 14.7501 34.2003C14.7432 34.3029 14.7576 34.4058 14.7922 34.5026C14.8269 34.5994 14.881 34.6881 14.9514 34.7631C15.0217 34.8381 15.1067 34.8978 15.2011 34.9386C15.2955 34.9793 15.3972 35.0002 15.5001 35H36.5001C36.6029 35.0002 36.7046 34.9793 36.799 34.9386C36.8934 34.8978 36.9784 34.8381 37.0488 34.7631C37.1191 34.6881 37.1733 34.5994 37.2079 34.5026C37.2425 34.4058 37.2569 34.3029 37.2501 34.2003C37.2333 34.0072 37.144 33.8276 37.0001 33.6977C36.8563 33.5678 36.6686 33.4971 36.4747 33.5ZM21.1251 31.25C21.1253 31.3528 21.1044 31.4546 21.0636 31.549C21.0229 31.6434 20.9631 31.7284 20.8881 31.7987C20.8131 31.869 20.7245 31.9232 20.6277 31.9578C20.5309 31.9925 20.428 32.0068 20.3254 32C20.1321 31.9832 19.9524 31.8938 19.8224 31.7497C19.6925 31.6057 19.622 31.4177 19.6251 31.2238V29.7753C19.6224 29.5816 19.6931 29.394 19.823 29.2502C19.9529 29.1064 20.1324 29.017 20.3254 29C20.428 28.9932 20.5309 29.0075 20.6277 29.0422C20.7245 29.0768 20.8131 29.131 20.8881 29.2013C20.9631 29.2716 21.0229 29.3566 21.0636 29.451C21.1044 29.5454 21.1253 29.6472 21.1251 29.75V31.25ZM21.1251 26C21.1253 26.1028 21.1044 26.2046 21.0636 26.299C21.0229 26.3934 20.9631 26.4784 20.8881 26.5487C20.8131 26.619 20.7245 26.6732 20.6277 26.7078C20.5309 26.7425 20.428 26.7568 20.3254 26.75C20.1322 26.733 19.9526 26.6435 19.8227 26.4995C19.6928 26.3555 19.6222 26.1677 19.6251 25.9738V24.5253C19.6224 24.3316 19.6931 24.144 19.823 24.0002C19.9529 23.8564 20.1324 23.767 20.3254 23.75C20.428 23.7432 20.5309 23.7575 20.6277 23.7922C20.7245 23.8268 20.8131 23.881 20.8881 23.9513C20.9631 24.0216 21.0229 24.1066 21.0636 24.201C21.1044 24.2954 21.1253 24.3972 21.1251 24.5V26ZM24.8751 31.25C24.8753 31.3528 24.8544 31.4546 24.8136 31.549C24.7729 31.6434 24.7131 31.7284 24.6381 31.7987C24.5631 31.869 24.4745 31.9232 24.3777 31.9578C24.2809 31.9925 24.178 32.0068 24.0754 32C23.8824 31.9832 23.703 31.894 23.5731 31.7504C23.4432 31.6068 23.3724 31.4193 23.3751 31.2256V29.7753C23.3727 29.5817 23.4435 29.3944 23.5733 29.2508C23.7032 29.1072 23.8825 29.0179 24.0754 29.0009C24.178 28.9941 24.2809 29.0085 24.3777 29.0431C24.4745 29.0777 24.5631 29.1319 24.6381 29.2022C24.7131 29.2726 24.7729 29.3576 24.8136 29.452C24.8544 29.5464 24.8753 29.6481 24.8751 29.7509V31.25ZM24.8751 26C24.8753 26.1028 24.8544 26.2046 24.8136 26.299C24.7729 26.3934 24.7131 26.4784 24.6381 26.5487C24.5631 26.619 24.4745 26.6732 24.3777 26.7078C24.2809 26.7425 24.178 26.7568 24.0754 26.75C23.8825 26.733 23.7032 26.6438 23.5733 26.5002C23.4435 26.3566 23.3727 26.1692 23.3751 25.9756V24.5253C23.3727 24.3317 23.4435 24.1444 23.5733 24.0008C23.7032 23.8572 23.8825 23.7679 24.0754 23.7509C24.178 23.7441 24.2809 23.7585 24.3777 23.7931C24.4745 23.8277 24.5631 23.8819 24.6381 23.9522C24.7131 24.0226 24.7729 24.1076 24.8136 24.202C24.8544 24.2964 24.8753 24.3981 24.8751 24.5009V26Z" fill="#00AEFF"/>
</g>
<g clip-path="url(#clip1_639_1600)">
<path d="M36.4749 33.5H35.0002V23C35.0002 22.6022 34.8421 22.2206 34.5608 21.9393C34.2795 21.658 33.898 21.5 33.5002 21.5H29.3752C29.2757 21.5 29.1803 21.5395 29.11 21.6098C29.0397 21.6802 29.0002 21.7755 29.0002 21.875V33.5H27.5002V17.0384C27.5027 16.8048 27.452 16.5737 27.3519 16.3625C27.2519 16.1513 27.1051 15.9657 26.9227 15.8197C26.6741 15.6258 26.3707 15.5153 26.0556 15.5037C25.7406 15.492 25.4299 15.58 25.1677 15.755L17.6677 20.75C17.4619 20.8873 17.2933 21.0733 17.1769 21.2915C17.0604 21.5097 16.9997 21.7533 17.0002 22.0006V33.5H15.5255C15.3317 33.4971 15.144 33.5678 15.0001 33.6977C14.8563 33.8276 14.767 34.0072 14.7502 34.2003C14.7434 34.3029 14.7577 34.4058 14.7924 34.5026C14.827 34.5994 14.8811 34.6881 14.9515 34.7631C15.0218 34.8381 15.1068 34.8978 15.2012 34.9386C15.2956 34.9793 15.3974 35.0002 15.5002 35H36.5002C36.603 35.0002 36.7048 34.9793 36.7992 34.9386C36.8935 34.8978 36.9785 34.8381 37.0489 34.7631C37.1192 34.6881 37.1734 34.5994 37.208 34.5026C37.2426 34.4058 37.257 34.3029 37.2502 34.2003C37.2334 34.0072 37.1441 33.8276 37.0002 33.6977C36.8564 33.5678 36.6687 33.4971 36.4749 33.5ZM21.1252 31.25C21.1254 31.3528 21.1045 31.4546 21.0637 31.549C21.023 31.6434 20.9632 31.7284 20.8882 31.7987C20.8133 31.869 20.7246 31.9232 20.6278 31.9578C20.531 31.9925 20.4281 32.0068 20.3255 32C20.1322 31.9832 19.9525 31.8938 19.8226 31.7497C19.6926 31.6057 19.6221 31.4177 19.6252 31.2238V29.7753C19.6225 29.5816 19.6933 29.394 19.8231 29.2502C19.953 29.1064 20.1325 29.017 20.3255 29C20.4281 28.9932 20.531 29.0075 20.6278 29.0422C20.7246 29.0768 20.8133 29.131 20.8882 29.2013C20.9632 29.2716 21.023 29.3566 21.0637 29.451C21.1045 29.5454 21.1254 29.6472 21.1252 29.75V31.25ZM21.1252 26C21.1254 26.1028 21.1045 26.2046 21.0637 26.299C21.023 26.3934 20.9632 26.4784 20.8882 26.5487C20.8133 26.619 20.7246 26.6732 20.6278 26.7078C20.531 26.7425 20.4281 26.7568 20.3255 26.75C20.1323 26.733 19.9527 26.6435 19.8228 26.4995C19.6929 26.3555 19.6223 26.1677 19.6252 25.9738V24.5253C19.6225 24.3316 19.6933 24.144 19.8231 24.0002C19.953 23.8564 20.1325 23.767 20.3255 23.75C20.4281 23.7432 20.531 23.7575 20.6278 23.7922C20.7246 23.8268 20.8133 23.881 20.8882 23.9513C20.9632 24.0216 21.023 24.1066 21.0637 24.201C21.1045 24.2954 21.1254 24.3972 21.1252 24.5V26ZM24.8752 31.25C24.8754 31.3528 24.8545 31.4546 24.8137 31.549C24.773 31.6434 24.7132 31.7284 24.6382 31.7987C24.5633 31.869 24.4746 31.9232 24.3778 31.9578C24.281 31.9925 24.1781 32.0068 24.0755 32C23.8826 31.9832 23.7031 31.894 23.5732 31.7504C23.4433 31.6068 23.3726 31.4193 23.3752 31.2256V29.7753C23.3728 29.5817 23.4436 29.3944 23.5735 29.2508C23.7033 29.1072 23.8826 29.0179 24.0755 29.0009C24.1781 28.9941 24.281 29.0085 24.3778 29.0431C24.4746 29.0777 24.5633 29.1319 24.6382 29.2022C24.7132 29.2726 24.773 29.3576 24.8137 29.452C24.8545 29.5464 24.8754 29.6481 24.8752 29.7509V31.25ZM24.8752 26C24.8754 26.1028 24.8545 26.2046 24.8137 26.299C24.773 26.3934 24.7132 26.4784 24.6382 26.5487C24.5633 26.619 24.4746 26.6732 24.3778 26.7078C24.281 26.7425 24.1781 26.7568 24.0755 26.75C23.8826 26.733 23.7033 26.6438 23.5735 26.5002C23.4436 26.3566 23.3728 26.1692 23.3752 25.9756V24.5253C23.3728 24.3317 23.4436 24.1444 23.5735 24.0008C23.7033 23.8572 23.8826 23.7679 24.0755 23.7509C24.1781 23.7441 24.281 23.7585 24.3778 23.7931C24.4746 23.8277 24.5633 23.8819 24.6382 23.9522C24.7132 24.0226 24.773 24.1076 24.8137 24.202C24.8545 24.2964 24.8754 24.3981 24.8752 24.5009V26Z" fill="#001B4E"/>
</g>
<defs>
<clipPath id="clip0_639_1600">
<rect width="14" height="24" fill="white" transform="translate(14 14)"/>
</clipPath>
<clipPath id="clip1_639_1600">
<rect width="10" height="24" fill="white" transform="translate(28 14)"/>
</clipPath>
</defs>
</svg>
