<svg width="24" height="24" viewBox="0 0 24 24" fill="none" xmlns="http://www.w3.org/2000/svg">
<g clip-path="url(#clip0_169_715)">
<path d="M22.4747 19.5H21.0001V9C21.0001 8.60218 20.842 8.22065 20.5607 7.93934C20.2794 7.65804 19.8979 7.5 19.5001 7.5H15.3751C15.2756 7.5 15.1802 7.53951 15.1099 7.60984C15.0396 7.68016 15.0001 7.77554 15.0001 7.875V19.5H13.5001V3.03844C13.5025 2.80479 13.4518 2.57365 13.3518 2.3625C13.2517 2.15135 13.105 1.96573 12.9226 1.81969C12.6739 1.62585 12.3706 1.51527 12.0555 1.50366C11.7405 1.49204 11.4298 1.57999 11.1676 1.755L3.66756 6.75C3.46182 6.88727 3.29321 7.07328 3.17675 7.29148C3.06029 7.50968 2.99959 7.75329 3.00006 8.00063V19.5H1.52537C1.33156 19.4971 1.14385 19.5678 1.00001 19.6977C0.856169 19.8276 0.766864 20.0072 0.750061 20.2003C0.743249 20.3029 0.757604 20.4058 0.792233 20.5026C0.826862 20.5994 0.881026 20.6881 0.95136 20.7631C1.02169 20.8381 1.1067 20.8978 1.20109 20.9386C1.29548 20.9793 1.39725 21.0002 1.50006 21H22.5001C22.6029 21.0002 22.7046 20.9793 22.799 20.9386C22.8934 20.8978 22.9784 20.8381 23.0488 20.7631C23.1191 20.6881 23.1733 20.5994 23.2079 20.5026C23.2425 20.4058 23.2569 20.3029 23.2501 20.2003C23.2333 20.0072 23.144 19.8276 23.0001 19.6977C22.8563 19.5678 22.6686 19.4971 22.4747 19.5ZM7.12506 17.25C7.12529 17.3528 7.10437 17.4546 7.06361 17.549C7.02285 17.6434 6.96312 17.7284 6.88813 17.7987C6.81313 17.869 6.72448 17.9232 6.62767 17.9578C6.53086 17.9925 6.42796 18.0068 6.32537 18C6.13211 17.9832 5.95239 17.8938 5.82244 17.7497C5.69249 17.6057 5.62196 17.4177 5.62506 17.2238V15.7753C5.62242 15.5816 5.69313 15.394 5.82302 15.2502C5.9529 15.1064 6.13235 15.017 6.32537 15C6.42796 14.9932 6.53086 15.0075 6.62767 15.0422C6.72448 15.0768 6.81313 15.131 6.88813 15.2013C6.96312 15.2716 7.02285 15.3566 7.06361 15.451C7.10437 15.5454 7.12529 15.6472 7.12506 15.75V17.25ZM7.12506 12C7.12529 12.1028 7.10437 12.2046 7.06361 12.299C7.02285 12.3934 6.96312 12.4784 6.88813 12.5487C6.81313 12.619 6.72448 12.6732 6.62767 12.7078C6.53086 12.7425 6.42796 12.7568 6.32537 12.75C6.13219 12.733 5.9526 12.6435 5.8227 12.4995C5.69279 12.3555 5.62218 12.1677 5.62506 11.9738V10.5253C5.62242 10.3316 5.69313 10.144 5.82302 10.0002C5.9529 9.85639 6.13235 9.76702 6.32537 9.75C6.42796 9.74319 6.53086 9.75754 6.62767 9.79217C6.72448 9.8268 6.81313 9.88097 6.88813 9.9513C6.96312 10.0216 7.02285 10.1066 7.06361 10.201C7.10437 10.2954 7.12529 10.3972 7.12506 10.5V12ZM10.8751 17.25C10.8753 17.3528 10.8544 17.4546 10.8136 17.549C10.7729 17.6434 10.7131 17.7284 10.6381 17.7987C10.5631 17.869 10.4745 17.9232 10.3777 17.9578C10.2809 17.9925 10.178 18.0068 10.0754 18C9.88243 17.9832 9.70299 17.894 9.57309 17.7504C9.44318 17.6068 9.37244 17.4193 9.37506 17.2256V15.7753C9.37266 15.5817 9.44348 15.3944 9.57334 15.2508C9.7032 15.1072 9.88252 15.0179 10.0754 15.0009C10.178 14.9941 10.2809 15.0085 10.3777 15.0431C10.4745 15.0777 10.5631 15.1319 10.6381 15.2022C10.7131 15.2726 10.7729 15.3576 10.8136 15.452C10.8544 15.5464 10.8753 15.6481 10.8751 15.7509V17.25ZM10.8751 12C10.8753 12.1028 10.8544 12.2046 10.8136 12.299C10.7729 12.3934 10.7131 12.4784 10.6381 12.5487C10.5631 12.619 10.4745 12.6732 10.3777 12.7078C10.2809 12.7425 10.178 12.7568 10.0754 12.75C9.88252 12.733 9.7032 12.6438 9.57334 12.5002C9.44348 12.3566 9.37266 12.1692 9.37506 11.9756V10.5253C9.37266 10.3317 9.44348 10.1444 9.57334 10.0008C9.7032 9.85718 9.88252 9.76794 10.0754 9.75094C10.178 9.74413 10.2809 9.75848 10.3777 9.79311C10.4745 9.82774 10.5631 9.8819 10.6381 9.95224C10.7131 10.0226 10.7729 10.1076 10.8136 10.202C10.8544 10.2964 10.8753 10.3981 10.8751 10.5009V12Z" fill="#00AEFF"/>
</g>
<g clip-path="url(#clip1_169_715)">
<path d="M22.4749 19.5H21.0002V9C21.0002 8.60218 20.8421 8.22065 20.5608 7.93934C20.2795 7.65804 19.898 7.5 19.5002 7.5H15.3752C15.2757 7.5 15.1803 7.53951 15.11 7.60984C15.0397 7.68016 15.0002 7.77555 15.0002 7.875V19.5H13.5002V3.03844C13.5027 2.8048 13.452 2.57365 13.3519 2.3625C13.2519 2.15135 13.1051 1.96573 12.9227 1.81969C12.6741 1.62585 12.3707 1.51527 12.0556 1.50366C11.7406 1.49205 11.4299 1.57999 11.1677 1.755L3.66768 6.75C3.46194 6.88727 3.29333 7.07329 3.17687 7.29149C3.06041 7.50968 2.99971 7.75329 3.00018 8.00063V19.5H1.5255C1.33168 19.4971 1.14398 19.5678 1.00013 19.6977C0.856291 19.8276 0.766986 20.0072 0.750183 20.2003C0.743371 20.3029 0.757726 20.4058 0.792355 20.5026C0.826984 20.5994 0.881148 20.6881 0.951482 20.7631C1.02182 20.8381 1.10682 20.8978 1.20121 20.9386C1.2956 20.9793 1.39737 21.0002 1.50018 21H22.5002C22.603 21.0002 22.7048 20.9793 22.7992 20.9386C22.8935 20.8978 22.9785 20.8381 23.0489 20.7631C23.1192 20.6881 23.1734 20.5994 23.208 20.5026C23.2426 20.4058 23.257 20.3029 23.2502 20.2003C23.2334 20.0072 23.1441 19.8276 23.0002 19.6977C22.8564 19.5678 22.6687 19.4971 22.4749 19.5ZM7.12518 17.25C7.12541 17.3528 7.10449 17.4546 7.06373 17.549C7.02297 17.6434 6.96324 17.7284 6.88825 17.7987C6.81325 17.869 6.7246 17.9232 6.62779 17.9578C6.53098 17.9925 6.42809 18.0068 6.3255 18C6.13223 17.9832 5.95251 17.8938 5.82256 17.7497C5.69261 17.6057 5.62208 17.4177 5.62518 17.2238V15.7753C5.62254 15.5816 5.69326 15.394 5.82314 15.2502C5.95302 15.1064 6.13247 15.017 6.3255 15C6.42809 14.9932 6.53098 15.0075 6.62779 15.0422C6.7246 15.0768 6.81325 15.131 6.88825 15.2013C6.96324 15.2716 7.02297 15.3566 7.06373 15.451C7.10449 15.5454 7.12541 15.6472 7.12518 15.75V17.25ZM7.12518 12C7.12541 12.1028 7.10449 12.2046 7.06373 12.299C7.02297 12.3934 6.96324 12.4784 6.88825 12.5487C6.81325 12.619 6.7246 12.6732 6.62779 12.7078C6.53098 12.7425 6.42809 12.7568 6.3255 12.75C6.13231 12.733 5.95272 12.6435 5.82282 12.4995C5.69291 12.3555 5.6223 12.1677 5.62518 11.9738V10.5253C5.62254 10.3316 5.69326 10.144 5.82314 10.0002C5.95302 9.85639 6.13247 9.76702 6.3255 9.75C6.42809 9.74319 6.53098 9.75755 6.62779 9.79217C6.7246 9.8268 6.81325 9.88097 6.88825 9.9513C6.96324 10.0216 7.02297 10.1066 7.06373 10.201C7.10449 10.2954 7.12541 10.3972 7.12518 10.5V12ZM10.8752 17.25C10.8754 17.3528 10.8545 17.4546 10.8137 17.549C10.773 17.6434 10.7132 17.7284 10.6382 17.7987C10.5633 17.869 10.4746 17.9232 10.3778 17.9578C10.281 17.9925 10.1781 18.0068 10.0755 18C9.88256 17.9832 9.70311 17.894 9.57321 17.7504C9.4433 17.6068 9.37256 17.4193 9.37518 17.2256V15.7753C9.37278 15.5817 9.4436 15.3944 9.57346 15.2508C9.70332 15.1072 9.88264 15.0179 10.0755 15.0009C10.1781 14.9941 10.281 15.0085 10.3778 15.0431C10.4746 15.0777 10.5633 15.1319 10.6382 15.2022C10.7132 15.2726 10.773 15.3576 10.8137 15.452C10.8545 15.5464 10.8754 15.6481 10.8752 15.7509V17.25ZM10.8752 12C10.8754 12.1028 10.8545 12.2046 10.8137 12.299C10.773 12.3934 10.7132 12.4784 10.6382 12.5487C10.5633 12.619 10.4746 12.6732 10.3778 12.7078C10.281 12.7425 10.1781 12.7568 10.0755 12.75C9.88264 12.733 9.70332 12.6438 9.57346 12.5002C9.4436 12.3566 9.37278 12.1692 9.37518 11.9756V10.5253C9.37278 10.3317 9.4436 10.1444 9.57346 10.0008C9.70332 9.85718 9.88264 9.76795 10.0755 9.75094C10.1781 9.74413 10.281 9.75848 10.3778 9.79311C10.4746 9.82774 10.5633 9.88191 10.6382 9.95224C10.7132 10.0226 10.773 10.1076 10.8137 10.202C10.8545 10.2964 10.8754 10.3981 10.8752 10.5009V12Z" fill="#001B4E"/>
</g>
<defs>
<clipPath id="clip0_169_715">
<rect width="14" height="24" fill="white"/>
</clipPath>
<clipPath id="clip1_169_715">
<rect width="10" height="24" fill="white" transform="translate(14)"/>
</clipPath>
</defs>
</svg>
