<svg width="22" height="22" viewBox="0 0 22 22" fill="none" xmlns="http://www.w3.org/2000/svg">
<path d="M4.58325 2.75H17.4166V19.25L16.4706 18.4397C16.1383 18.1549 15.7151 17.9984 15.2775 17.9984C14.8399 17.9984 14.4168 18.1549 14.0845 18.4397L13.1385 19.25L12.1934 18.4397C11.8611 18.1547 11.4377 17.998 10.9999 17.998C10.5621 17.998 10.1388 18.1547 9.80642 18.4397L8.86133 19.25L7.91534 18.4397C7.58307 18.1549 7.1599 17.9984 6.72229 17.9984C6.28469 17.9984 5.86152 18.1549 5.52925 18.4397L4.58325 19.25V2.75Z" fill="white"/>
<path d="M13.7499 6.41667H10.9999H8.24992M13.7499 10.0833H10.9999H8.24992M13.7499 13.75H10.0833M4.58325 2.75H17.4166V19.25L16.4706 18.4397C16.1383 18.1549 15.7151 17.9984 15.2775 17.9984C14.8399 17.9984 14.4168 18.1549 14.0845 18.4397L13.1385 19.25L12.1934 18.4397C11.8611 18.1547 11.4377 17.998 10.9999 17.998C10.5621 17.998 10.1388 18.1547 9.80642 18.4397L8.86133 19.25L7.91534 18.4397C7.58307 18.1549 7.1599 17.9984 6.72229 17.9984C6.28469 17.9984 5.86152 18.1549 5.52925 18.4397L4.58325 19.25V2.75Z" stroke="#001B4E" stroke-width="2" stroke-linecap="round" stroke-linejoin="round"/>
<rect x="7" y="5.39999" width="8" height="2" rx="1" fill="#00AEFF"/>
<rect x="7" y="9.10001" width="8" height="2" rx="1" fill="#00AEFF"/>
<rect x="7" y="12.8" width="8" height="2" rx="1" fill="#00AEFF"/>
</svg>
