<svg width="14" height="14" viewBox="0 0 14 14" fill="none" xmlns="http://www.w3.org/2000/svg">
<path fill-rule="evenodd" clip-rule="evenodd" d="M1.16663 12.25V4.08333C1.16663 2.98317 1.16663 2.43367 1.50846 2.09183C1.85029 1.75 2.39979 1.75 3.49996 1.75H9.33329C9.81863 1.75 10.1955 1.75 10.5023 1.76575C9.86009 1.83697 9.26672 2.14254 8.83577 2.62397C8.40482 3.1054 8.16657 3.72886 8.16663 4.375V6.41667L8.10888 12.2307L6.41663 11.6667L4.66663 12.25L2.91663 11.6667L1.16663 12.25ZM12.25 6.41667H9.33329V4.375C9.33329 3.98823 9.48694 3.61729 9.76043 3.3438C10.0339 3.07031 10.4049 2.91667 10.7916 2.91667C11.1784 2.91667 11.5493 3.07031 11.8228 3.3438C12.0963 3.61729 12.25 3.98823 12.25 4.375V6.41667ZM2.33329 4.08333C2.33329 3.92862 2.39475 3.78025 2.50415 3.67085C2.61354 3.56146 2.76192 3.5 2.91663 3.5H6.41663C6.57134 3.5 6.71971 3.56146 6.8291 3.67085C6.9385 3.78025 6.99996 3.92862 6.99996 4.08333C6.99996 4.23804 6.9385 4.38642 6.8291 4.49581C6.71971 4.60521 6.57134 4.66667 6.41663 4.66667H2.91663C2.76192 4.66667 2.61354 4.60521 2.50415 4.49581C2.39475 4.38642 2.33329 4.23804 2.33329 4.08333ZM2.33329 6.41667C2.33329 6.26196 2.39475 6.11358 2.50415 6.00419C2.61354 5.89479 2.76192 5.83333 2.91663 5.83333H4.08329C4.238 5.83333 4.38638 5.89479 4.49577 6.00419C4.60517 6.11358 4.66663 6.26196 4.66663 6.41667C4.66663 6.57138 4.60517 6.71975 4.49577 6.82915C4.38638 6.93854 4.238 7 4.08329 7H2.91663C2.76192 7 2.61354 6.93854 2.50415 6.82915C2.39475 6.71975 2.33329 6.57138 2.33329 6.41667ZM2.33329 8.75C2.33329 8.59529 2.39475 8.44692 2.50415 8.33752C2.61354 8.22812 2.76192 8.16667 2.91663 8.16667H5.24996C5.40467 8.16667 5.55304 8.22812 5.66244 8.33752C5.77183 8.44692 5.83329 8.59529 5.83329 8.75C5.83329 8.90471 5.77183 9.05308 5.66244 9.16248C5.55304 9.27187 5.40467 9.33333 5.24996 9.33333H2.91663C2.76192 9.33333 2.61354 9.27187 2.50415 9.16248C2.39475 9.05308 2.33329 8.90471 2.33329 8.75Z" fill="white"/>
</svg>
