<svg width="24" height="24" viewBox="0 0 24 24" fill="none" xmlns="http://www.w3.org/2000/svg">
<path d="M16 16.9999V18.9999H2V16.9999C2 16.9999 2 12.9999 9 12.9999C16 12.9999 16 16.9999 16 16.9999ZM12.5 7.49995C12.5 6.80771 12.2947 6.13103 11.9101 5.55545C11.5256 4.97988 10.9789 4.53128 10.3394 4.26637C9.69985 4.00146 8.99612 3.93215 8.31718 4.0672C7.63825 4.20225 7.01461 4.53559 6.52513 5.02508C6.03564 5.51456 5.7023 6.1382 5.56725 6.81713C5.4322 7.49607 5.50152 8.1998 5.76642 8.83934C6.03133 9.47888 6.47993 10.0255 7.0555 10.4101C7.63108 10.7947 8.30777 10.9999 9 10.9999C9.92826 10.9999 10.8185 10.6312 11.4749 9.97482C12.1313 9.31844 12.5 8.42821 12.5 7.49995Z" fill="#00AEFF"/>
<g clip-path="url(#clip0_169_723)">
<path d="M12.5 7.50001C12.5 6.80777 12.2947 6.13108 11.9101 5.55551C11.5256 4.97994 10.9789 4.53134 10.3394 4.26643C9.69985 4.00152 8.99612 3.93221 8.31718 4.06726C7.63825 4.20231 7.01461 4.53565 6.52513 5.02513C6.03564 5.51462 5.7023 6.13826 5.56725 6.81719C5.4322 7.49612 5.50152 8.19986 5.76642 8.8394C6.03133 9.47894 6.47993 10.0256 7.0555 10.4102C7.63108 10.7947 8.30777 11 9 11C9.92826 11 10.8185 10.6313 11.4749 9.97488C12.1313 9.3185 12.5 8.42826 12.5 7.50001ZM15.94 13C16.5547 13.4758 17.0578 14.0804 17.4137 14.7715C17.7696 15.4626 17.9697 16.2233 18 17V19H22V17C22 17 22 13.37 15.94 13ZM15 4.00001C14.3117 3.99617 13.6385 4.20196 13.07 4.59001C13.6774 5.43874 14.0041 6.45629 14.0041 7.50001C14.0041 8.54372 13.6774 9.56127 13.07 10.41C13.6385 10.7981 14.3117 11.0038 15 11C15.9283 11 16.8185 10.6313 17.4749 9.97488C18.1313 9.3185 18.5 8.42826 18.5 7.50001C18.5 6.57175 18.1313 5.68151 17.4749 5.02513C16.8185 4.36876 15.9283 4.00001 15 4.00001Z" fill="#001B4E"/>
</g>
<defs>
<clipPath id="clip0_169_723">
<rect width="11" height="24" fill="white" transform="translate(13)"/>
</clipPath>
</defs>
</svg>
