<svg width="24" height="24" viewBox="0 0 24 24" fill="none" xmlns="http://www.w3.org/2000/svg">
<g clip-path="url(#clip0_169_1022)">
<path fill-rule="evenodd" clip-rule="evenodd" d="M13.026 2.26989C13.2409 2.19835 13.4693 2.17641 13.6939 2.20573C13.9185 2.23505 14.1336 2.31487 14.3229 2.43919C14.5123 2.56351 14.6711 2.72911 14.7873 2.92355C14.9035 3.11799 14.9742 3.33623 14.994 3.56189L15 3.69389V9.17989L18.794 9.93989C19.1102 10.0029 19.3976 10.1661 19.6138 10.4053C19.8299 10.6445 19.9632 10.947 19.994 11.2679L20 11.4099V18.9999H21C21.2549 19.0002 21.5 19.0978 21.6854 19.2727C21.8707 19.4477 21.9822 19.6868 21.9972 19.9413C22.0121 20.1957 21.9293 20.4463 21.7657 20.6417C21.6021 20.8372 21.3701 20.9628 21.117 20.9929L21 20.9999H2.99999C2.74511 20.9996 2.49996 20.902 2.31462 20.727C2.12929 20.5521 2.01776 20.3129 2.00282 20.0585C1.98788 19.8041 2.07067 19.5535 2.23426 19.3581C2.39785 19.1626 2.62989 19.037 2.88299 19.0069L2.99999 18.9999H3.99999V6.35989C3.99999 5.75989 4.35599 5.22389 4.89799 4.98589L5.02599 4.93689L13.026 2.26989ZM13 4.38789L5.99999 6.72089V18.9999H13V4.38789ZM15 11.2209V18.9999H18V11.8199L15 11.2209Z" fill="#111111"/>
</g>
<defs>
<clipPath id="clip0_169_1022">
<rect width="24" height="24" fill="white"/>
</clipPath>
</defs>
</svg>
