<svg width="24" height="24" viewBox="0 0 24 24" fill="none" xmlns="http://www.w3.org/2000/svg">
<g clip-path="url(#clip0_169_780)">
<path d="M21 22L18 20L15 22L12 20L9 22L6 20L3 22V3H21V22ZM19 18.26V5H5V18.26L6 17.6L9 19.6L12 17.6L15 19.6L18 17.6L19 18.26Z" fill="#001B4E"/>
<path d="M8.87158 14.2967L14.4999 8.6775L16.3607 10.5475L10.7416 16.1667H8.87158V14.2967ZM16.6907 7.1375C16.6704 7.11422 16.6455 7.09548 16.6174 7.0825C16.5326 7.02313 16.4301 6.99442 16.3268 7.00108C16.2235 7.00775 16.1256 7.0494 16.0491 7.11917L16.0307 7.1375L15.1324 8.03583L17.0024 9.90583L17.9007 9.0075C18.0841 8.83333 18.0841 8.53083 17.9007 8.3475L16.6907 7.1375Z" fill="#001B4E"/>
<g style="mix-blend-mode:color-dodge">
<path d="M8.5 14L16 6.5L18.5 8.5L11 16.5H8.5V14Z" fill="#D9D9D9"/>
</g>
</g>
<defs>
<clipPath id="clip0_169_780">
<rect width="24" height="24" fill="white"/>
</clipPath>
</defs>
</svg>
