<svg width="22" height="22" viewBox="0 0 22 22" fill="none" xmlns="http://www.w3.org/2000/svg">
<path d="M8.76705 8.00249L9.23914 9.71024C9.68372 11.319 9.90555 12.1238 10.5591 12.4896C11.2127 12.8562 12.0423 12.6399 13.7015 12.2091L15.4615 11.7507C17.1206 11.3199 17.9502 11.1045 18.3279 10.4711C18.7056 9.83674 18.4837 9.0319 18.0382 7.42315L17.5671 5.71632C17.1225 4.10665 16.8997 3.30182 16.2471 2.93607C15.5926 2.5694 14.763 2.78574 13.1038 3.21749L11.3438 3.67399C9.68464 4.10482 8.85505 4.32115 8.4783 4.95549C8.10064 5.5889 8.32247 6.39374 8.76705 8.00249Z" fill="#00AEFF"/>
<path d="M2.0873 4.80975C2.11145 4.72269 2.15253 4.64125 2.20818 4.57007C2.26382 4.49889 2.33296 4.43939 2.41162 4.39495C2.49028 4.35051 2.57694 4.32201 2.66662 4.31108C2.75631 4.30015 2.84727 4.30701 2.9343 4.33125L4.49538 4.76392C4.90911 4.87628 5.28667 5.09392 5.59126 5.39562C5.89585 5.69732 6.11708 6.07278 6.23338 6.48542L8.20513 13.6226L8.34997 14.124C8.93458 14.3395 9.42722 14.7496 9.74513 15.2854L10.0293 15.1974L18.1601 13.0845C18.2475 13.0618 18.3385 13.0564 18.428 13.0689C18.5174 13.0813 18.6036 13.1112 18.6815 13.1569C18.7593 13.2026 18.8275 13.2632 18.8819 13.3353C18.9364 13.4073 18.9761 13.4894 18.9989 13.5768C19.0216 13.6641 19.027 13.7552 19.0145 13.8446C19.0021 13.9341 18.9722 14.0202 18.9265 14.0981C18.8808 14.176 18.8202 14.2441 18.7481 14.2985C18.6761 14.353 18.594 14.3928 18.5066 14.4155L10.4061 16.5202L10.1036 16.6137C10.0981 17.7778 9.29413 18.843 8.07772 19.1583C6.62022 19.5378 5.12147 18.6982 4.73097 17.2847C4.34047 15.8703 5.2058 14.4164 6.6633 14.0378C6.73512 14.0193 6.80758 14.0034 6.88055 13.9902L4.90788 6.85117C4.85478 6.66776 4.75511 6.50121 4.61858 6.36773C4.48204 6.23424 4.31328 6.13837 4.12872 6.08942L2.56672 5.65584C2.47967 5.63178 2.39822 5.59081 2.32702 5.53526C2.25581 5.47972 2.19625 5.41069 2.15173 5.33211C2.10721 5.25354 2.0786 5.16697 2.06755 5.07734C2.05649 4.98772 2.06321 4.89679 2.0873 4.80975Z" fill="#001B4E"/>
</svg>
