<svg width="24" height="24" viewBox="0 0 24 24" fill="none" xmlns="http://www.w3.org/2000/svg">
<path d="M11.9999 12C13.2623 12 14.2857 10.9767 14.2857 9.71429C14.2857 8.45192 13.2623 7.42857 11.9999 7.42857C10.7376 7.42857 9.71423 8.45192 9.71423 9.71429C9.71423 10.9767 10.7376 12 11.9999 12Z" fill="#00AEFF" stroke="#00AEFF" stroke-linecap="round" stroke-linejoin="round"/>
<path d="M4 7.42857H5.14286V6.28571C5.14286 5.67951 5.38367 5.09812 5.81233 4.66947C6.24098 4.24082 6.82236 4 7.42857 4H16.5714C17.1776 4 17.759 4.24082 18.1877 4.66947C18.6163 5.09812 18.8571 5.67951 18.8571 6.28571V17.7143C18.8571 18.3205 18.6163 18.9019 18.1877 19.3305C17.759 19.7592 17.1776 20 16.5714 20H7.42857C6.82236 20 6.24098 19.7592 5.81233 19.3305C5.38367 18.9019 5.14286 18.3205 5.14286 17.7143V16.5714H4M4 12H5.14286M4 9.71429H5.14286M4 14.2857H5.14286" stroke="#001B4E" stroke-linecap="round" stroke-linejoin="round"/>
<path fill-rule="evenodd" clip-rule="evenodd" d="M15.4286 15.4286V14.2857C15.4286 13.6795 15.1877 13.0981 14.7591 12.6695C14.3304 12.2408 13.749 12 13.1428 12H10.8571C10.2509 12 9.66954 12.2408 9.24088 12.6695C8.81223 13.0981 8.57141 13.6795 8.57141 14.2857V15.4286C8.57141 15.7317 8.69182 16.0224 8.90615 16.2367C9.12047 16.451 9.41116 16.5714 9.71427 16.5714H14.2857C14.5888 16.5714 14.8795 16.451 15.0938 16.2367C15.3081 16.0224 15.4286 15.7317 15.4286 15.4286Z" fill="#00AEFF" stroke="#00AEFF" stroke-linecap="round" stroke-linejoin="round"/>
</svg>
