<svg width="24" height="24" viewBox="0 0 24 24" fill="none" xmlns="http://www.w3.org/2000/svg">
<path d="M9 4.76501V20H11V15H13V20H15V4.76601C14.0806 4.26181 13.0486 3.9983 12 4.00001C10.911 4.00001 9.89 4.27701 9 4.76501ZM17 6.38101V10.101C17.651 9.43487 18.4288 8.90579 19.2876 8.54495C20.1463 8.18412 21.0685 7.99883 22 8.00001H23V22H1V8.00001H2C3.959 8.00001 5.73 8.80401 7 10.101V6.38101L6.967 6.41101L5.588 4.96301L6.312 4.27301C6.662 3.94001 7.042 3.63701 7.448 3.36901C8.7973 2.47413 10.3809 1.99786 12 2.00001C14.1192 1.99645 16.1578 2.8119 17.69 4.27601L18.414 4.96601L17.034 6.41401L17 6.38101ZM7 15C6.99986 13.8475 6.6017 12.7303 5.87286 11.8375C5.14401 10.9446 4.12919 10.3309 3 10.1V20H7V15ZM17 20H21V10.1C19.8708 10.3309 18.856 10.9446 18.1271 11.8375C17.3983 12.7303 17.0001 13.8475 17 15V20ZM11 6.99801H13.004V9.00201H11V6.99801Z" fill="#111111"/>
</svg>
